<mxfile host="app.diagrams.net" modified="2022-04-06T16:13:27.271Z" agent="5.0 (X11)" etag="lYBCAlnXv0Zto3cd78eb" version="17.4.0" type="github">
  <diagram id="KEX1R2cKKPypgEW8wBNe" name="Page-1">
    <mxGraphModel dx="1422" dy="723" grid="1" gridSize="10" guides="1" tooltips="1" connect="1" arrows="1" fold="1" page="1" pageScale="1" pageWidth="850" pageHeight="1100" math="0" shadow="0">
      <root>
        <mxCell id="0" />
        <mxCell id="1" parent="0" />
      </root>
    </mxGraphModel>
  </diagram>
</mxfile>
